<?xml version="1.0" encoding="utf-8" standalone="no"?>
<!DOCTYPE svg PUBLIC "-//W3C//DTD SVG 1.1//EN"
  "http://www.w3.org/Graphics/SVG/1.1/DTD/svg11.dtd">
<svg xmlns:xlink="http://www.w3.org/1999/xlink" width="65.99952pt" height="65.99952pt" viewBox="0 0 65.99952 65.99952" xmlns="http://www.w3.org/2000/svg" version="1.1">
 <metadata>
  <rdf:RDF xmlns:dc="http://purl.org/dc/elements/1.1/" xmlns:cc="http://creativecommons.org/ns#" xmlns:rdf="http://www.w3.org/1999/02/22-rdf-syntax-ns#">
   <cc:Work>
    <dc:type rdf:resource="http://purl.org/dc/dcmitype/StillImage"/>
    <dc:date>2026-02-12T11:56:04.250521</dc:date>
    <dc:format>image/svg+xml</dc:format>
    <dc:creator>
     <cc:Agent>
      <dc:title>Matplotlib v3.10.0, https://matplotlib.org/</dc:title>
     </cc:Agent>
    </dc:creator>
   </cc:Work>
  </rdf:RDF>
 </metadata>
 <defs>
  <style type="text/css">*{stroke-linejoin: round; stroke-linecap: butt}</style>
 </defs>
 <g id="figure_1">
  <g id="patch_1">
   <path d="M 0 65.99952 
L 65.99952 65.99952 
L 65.99952 0 
L 0 0 
L 0 65.99952 
z
" style="fill: none"/>
  </g>
  <g id="axes_1">
   <g id="patch_2">
    <path d="M 15.631465 65.99952 
L 50.368055 65.99952 
Q 65.99952 65.99952 65.99952 50.368055 
L 65.99952 15.631465 
Q 65.99952 0 50.368055 0 
L 15.631465 0 
Q 0 0 0 15.631465 
L 0 50.368055 
Q 0 65.99952 15.631465 65.99952 
z
" clip-path="url(#pc8fff05e74)" style="fill: #d3d3d3"/>
   </g>
   <g id="FillBetweenPolyCollection_1">
    <defs>
     <path id="me95f3b595b" d="M 6.947318 -6.947318 
L 6.947318 -6.947318 
L 6.999475 -7.67395 
L 7.051632 -8.400458 
L 7.103789 -9.126699 
L 7.155946 -9.852525 
L 7.208103 -10.577791 
L 7.26026 -11.302349 
L 7.312417 -12.026052 
L 7.364574 -12.748753 
L 7.416731 -13.470305 
L 7.468888 -14.190561 
L 7.521045 -14.909375 
L 7.573202 -15.626598 
L 7.625359 -16.342085 
L 7.677516 -17.055688 
L 7.729674 -17.76726 
L 7.781831 -18.476654 
L 7.833988 -19.183724 
L 7.886145 -19.888322 
L 7.938302 -20.590301 
L 7.990459 -21.289515 
L 8.042616 -21.985815 
L 8.094773 -22.679057 
L 8.14693 -23.369091 
L 8.199087 -24.055772 
L 8.251244 -24.738952 
L 8.303401 -25.418485 
L 8.355558 -26.094223 
L 8.407715 -26.76602 
L 8.459872 -27.433728 
L 8.512029 -28.097201 
L 8.564186 -28.756291 
L 8.616343 -29.410852 
L 8.6685 -30.060736 
L 8.720657 -30.705797 
L 8.772814 -31.345888 
L 8.824971 -31.980861 
L 8.877128 -32.610569 
L 8.929285 -33.234867 
L 8.981443 -33.853606 
L 9.0336 -34.46664 
L 9.085757 -35.073821 
L 9.137914 -35.675003 
L 9.190071 -36.270039 
L 9.242228 -36.858782 
L 9.294385 -37.441084 
L 9.346542 -38.0168 
L 9.398699 -38.585781 
L 9.450856 -39.147881 
L 9.503013 -39.702953 
L 9.55517 -40.250849 
L 9.607327 -40.791424 
L 9.659484 -41.324529 
L 9.711641 -41.850019 
L 9.763798 -42.367745 
L 9.815955 -42.877561 
L 9.868112 -43.379321 
L 9.920269 -43.872876 
L 9.972426 -44.358081 
L 10.024583 -44.834787 
L 10.07674 -45.302848 
L 10.128897 -45.762118 
L 10.181054 -46.212449 
L 10.233211 -46.653694 
L 10.285369 -47.085706 
L 10.337526 -47.508338 
L 10.389683 -47.921443 
L 10.44184 -48.324877 
L 10.493997 -48.718599 
L 10.546154 -49.102701 
L 10.598311 -49.477285 
L 10.650468 -49.842452 
L 10.702625 -50.198304 
L 10.754782 -50.544943 
L 10.806939 -50.882469 
L 10.859096 -51.210986 
L 10.911253 -51.530593 
L 10.96341 -51.841394 
L 11.015567 -52.143489 
L 11.067724 -52.43698 
L 11.119881 -52.721969 
L 11.172038 -52.998557 
L 11.224195 -53.266845 
L 11.276352 -53.526936 
L 11.328509 -53.778931 
L 11.380666 -54.022931 
L 11.432823 -54.259038 
L 11.48498 -54.487354 
L 11.537138 -54.707981 
L 11.589295 -54.921019 
L 11.641452 -55.12657 
L 11.693609 -55.324736 
L 11.745766 -55.515619 
L 11.797923 -55.69932 
L 11.85008 -55.875941 
L 11.902237 -56.045583 
L 11.954394 -56.208348 
L 12.006551 -56.364337 
L 12.058708 -56.513653 
L 12.110865 -56.656396 
L 12.163022 -56.792668 
L 12.215179 -56.922571 
L 12.267336 -57.046206 
L 12.319493 -57.163675 
L 12.37165 -57.27508 
L 12.423807 -57.380521 
L 12.475964 -57.480102 
L 12.528121 -57.573922 
L 12.580278 -57.662085 
L 12.632435 -57.74469 
L 12.684592 -57.821841 
L 12.736749 -57.893638 
L 12.788907 -57.960184 
L 12.841064 -58.021579 
L 12.893221 -58.077925 
L 12.945378 -58.129325 
L 12.997535 -58.175878 
L 13.049692 -58.217688 
L 13.101849 -58.254856 
L 13.154006 -58.287482 
L 13.206163 -58.315669 
L 13.25832 -58.339519 
L 13.310477 -58.359133 
L 13.362634 -58.374612 
L 13.414791 -58.386058 
L 13.466948 -58.393573 
L 13.519105 -58.397258 
L 13.571262 -58.397215 
L 13.623419 -58.393545 
L 13.675576 -58.38635 
L 13.727733 -58.375732 
L 13.77989 -58.361792 
L 13.832047 -58.344631 
L 13.884204 -58.324352 
L 13.936361 -58.301056 
L 13.988518 -58.274844 
L 14.040676 -58.245819 
L 14.092833 -58.214081 
L 14.14499 -58.179732 
L 14.197147 -58.142874 
L 14.249304 -58.103608 
L 14.301461 -58.062036 
L 14.353618 -58.018259 
L 14.405775 -57.97238 
L 14.457932 -57.9245 
L 14.510089 -57.874719 
L 14.562246 -57.823141 
L 14.614403 -57.769865 
L 14.66656 -57.714995 
L 14.718717 -57.658632 
L 14.770874 -57.600876 
L 14.823031 -57.54183 
L 14.875188 -57.481596 
L 14.927345 -57.420274 
L 14.979502 -57.357967 
L 15.031659 -57.294776 
L 15.083816 -57.230803 
L 15.135973 -57.166148 
L 15.18813 -57.100915 
L 15.240287 -57.035204 
L 15.292444 -56.969116 
L 15.344602 -56.902755 
L 15.396759 -56.83622 
L 15.448916 -56.769614 
L 15.501073 -56.703038 
L 15.55323 -56.636595 
L 15.605387 -56.570384 
L 15.657544 -56.504506 
L 15.709701 -56.439012 
L 15.761858 -56.373901 
L 15.814015 -56.309174 
L 15.866172 -56.244828 
L 15.918329 -56.180863 
L 15.970486 -56.117278 
L 16.022643 -56.054071 
L 16.0748 -55.991241 
L 16.126957 -55.928788 
L 16.179114 -55.866709 
L 16.231271 -55.805005 
L 16.283428 -55.743673 
L 16.335585 -55.682713 
L 16.387742 -55.622123 
L 16.439899 -55.561903 
L 16.492056 -55.502051 
L 16.544213 -55.442567 
L 16.596371 -55.383448 
L 16.648528 -55.324694 
L 16.700685 -55.266304 
L 16.752842 -55.208277 
L 16.804999 -55.150611 
L 16.857156 -55.093306 
L 16.909313 -55.036359 
L 16.96147 -54.979771 
L 17.013627 -54.92354 
L 17.065784 -54.867665 
L 17.117941 -54.812144 
L 17.170098 -54.756977 
L 17.222255 -54.702163 
L 17.274412 -54.6477 
L 17.326569 -54.593587 
L 17.378726 -54.539823 
L 17.430883 -54.486408 
L 17.48304 -54.433339 
L 17.535197 -54.380615 
L 17.587354 -54.328237 
L 17.639511 -54.276201 
L 17.691668 -54.224508 
L 17.743825 -54.173157 
L 17.795982 -54.122145 
L 17.84814 -54.071472 
L 17.900297 -54.021137 
L 17.952454 -53.971139 
L 18.004611 -53.921476 
L 18.056768 -53.872148 
L 18.108925 -53.823153 
L 18.161082 -53.77449 
L 18.213239 -53.726158 
L 18.265396 -53.678156 
L 18.317553 -53.630483 
L 18.36971 -53.583138 
L 18.421867 -53.536119 
L 18.474024 -53.489425 
L 18.526181 -53.443056 
L 18.578338 -53.39701 
L 18.630495 -53.351285 
L 18.682652 -53.305882 
L 18.734809 -53.260798 
L 18.786966 -53.216033 
L 18.839123 -53.171586 
L 18.89128 -53.127455 
L 18.943437 -53.083639 
L 18.995594 -53.040137 
L 19.047751 -52.996948 
L 19.099909 -52.954071 
L 19.152066 -52.911505 
L 19.204223 -52.869248 
L 19.25638 -52.8273 
L 19.308537 -52.785659 
L 19.360694 -52.744324 
L 19.412851 -52.703295 
L 19.465008 -52.662569 
L 19.517165 -52.622146 
L 19.569322 -52.582025 
L 19.621479 -52.542204 
L 19.673636 -52.502683 
L 19.725793 -52.46346 
L 19.77795 -52.424534 
L 19.830107 -52.385905 
L 19.882264 -52.34757 
L 19.934421 -52.309529 
L 19.986578 -52.27178 
L 20.038735 -52.234323 
L 20.090892 -52.197157 
L 20.143049 -52.16028 
L 20.195206 -52.123691 
L 20.247363 -52.087389 
L 20.29952 -52.051372 
L 20.351677 -52.015641 
L 20.403835 -51.980193 
L 20.455992 -51.945028 
L 20.508149 -51.910144 
L 20.560306 -51.87554 
L 20.612463 -51.841216 
L 20.66462 -51.807169 
L 20.716777 -51.773399 
L 20.768934 -51.739905 
L 20.821091 -51.706686 
L 20.873248 -51.67374 
L 20.925405 -51.641066 
L 20.977562 -51.608664 
L 21.029719 -51.576531 
L 21.081876 -51.544668 
L 21.134033 -51.513072 
L 21.18619 -51.481743 
L 21.238347 -51.45068 
L 21.290504 -51.419881 
L 21.342661 -51.389346 
L 21.394818 -51.359072 
L 21.446975 -51.32906 
L 21.499132 -51.299307 
L 21.551289 -51.269814 
L 21.603446 -51.240578 
L 21.655604 -51.211598 
L 21.707761 -51.182874 
L 21.759918 -51.154404 
L 21.812075 -51.126188 
L 21.864232 -51.098223 
L 21.916389 -51.070509 
L 21.968546 -51.043045 
L 22.020703 -51.01583 
L 22.07286 -50.988862 
L 22.125017 -50.962141 
L 22.177174 -50.935664 
L 22.229331 -50.909432 
L 22.281488 -50.883443 
L 22.333645 -50.857696 
L 22.385802 -50.832189 
L 22.437959 -50.806922 
L 22.490116 -50.781894 
L 22.542273 -50.757103 
L 22.59443 -50.732548 
L 22.646587 -50.708228 
L 22.698744 -50.684142 
L 22.750901 -50.660289 
L 22.803058 -50.636668 
L 22.855215 -50.613277 
L 22.907373 -50.590116 
L 22.95953 -50.567183 
L 23.011687 -50.544477 
L 23.063844 -50.521997 
L 23.116001 -50.499742 
L 23.168158 -50.477711 
L 23.220315 -50.455903 
L 23.272472 -50.434316 
L 23.324629 -50.41295 
L 23.376786 -50.391802 
L 23.428943 -50.370874 
L 23.4811 -50.350162 
L 23.533257 -50.329666 
L 23.585414 -50.309384 
L 23.637571 -50.289317 
L 23.689728 -50.269461 
L 23.741885 -50.249818 
L 23.794042 -50.230384 
L 23.846199 -50.21116 
L 23.898356 -50.192143 
L 23.950513 -50.173334 
L 24.00267 -50.15473 
L 24.054827 -50.136331 
L 24.106984 -50.118135 
L 24.159142 -50.100142 
L 24.211299 -50.08235 
L 24.263456 -50.064758 
L 24.315613 -50.047365 
L 24.36777 -50.03017 
L 24.419927 -50.013171 
L 24.472084 -49.996368 
L 24.524241 -49.97976 
L 24.576398 -49.963344 
L 24.628555 -49.947122 
L 24.680712 -49.93109 
L 24.732869 -49.915248 
L 24.785026 -49.899595 
L 24.837183 -49.884129 
L 24.88934 -49.86885 
L 24.941497 -49.853757 
L 24.993654 -49.838847 
L 25.045811 -49.824121 
L 25.097968 -49.809577 
L 25.150125 -49.795214 
L 25.202282 -49.781031 
L 25.254439 -49.767026 
L 25.306596 -49.753199 
L 25.358753 -49.739548 
L 25.41091 -49.726073 
L 25.463068 -49.712771 
L 25.515225 -49.699643 
L 25.567382 -49.686686 
L 25.619539 -49.673901 
L 25.671696 -49.661285 
L 25.723853 -49.648837 
L 25.77601 -49.636557 
L 25.828167 -49.624443 
L 25.880324 -49.612494 
L 25.932481 -49.600709 
L 25.984638 -49.589087 
L 26.036795 -49.577626 
L 26.088952 -49.566326 
L 26.141109 -49.555186 
L 26.193266 -49.544204 
L 26.245423 -49.533379 
L 26.29758 -49.52271 
L 26.349737 -49.512196 
L 26.401894 -49.501836 
L 26.454051 -49.491629 
L 26.506208 -49.481573 
L 26.558365 -49.471668 
L 26.610522 -49.461912 
L 26.662679 -49.452304 
L 26.714837 -49.442843 
L 26.766994 -49.433528 
L 26.819151 -49.424358 
L 26.871308 -49.415332 
L 26.923465 -49.406448 
L 26.975622 -49.397705 
L 27.027779 -49.389103 
L 27.079936 -49.38064 
L 27.132093 -49.372315 
L 27.18425 -49.364127 
L 27.236407 -49.356074 
L 27.288564 -49.348156 
L 27.340721 -49.340372 
L 27.392878 -49.33272 
L 27.445035 -49.325199 
L 27.497192 -49.317809 
L 27.549349 -49.310547 
L 27.601506 -49.303413 
L 27.653663 -49.296406 
L 27.70582 -49.289525 
L 27.757977 -49.282768 
L 27.810134 -49.276134 
L 27.862291 -49.269623 
L 27.914448 -49.263232 
L 27.966606 -49.256962 
L 28.018763 -49.25081 
L 28.07092 -49.244776 
L 28.123077 -49.238859 
L 28.175234 -49.233057 
L 28.227391 -49.227369 
L 28.279548 -49.221795 
L 28.331705 -49.216333 
L 28.383862 -49.210981 
L 28.436019 -49.20574 
L 28.488176 -49.200607 
L 28.540333 -49.195581 
L 28.59249 -49.190662 
L 28.644647 -49.185848 
L 28.696804 -49.181139 
L 28.748961 -49.176532 
L 28.801118 -49.172027 
L 28.853275 -49.167624 
L 28.905432 -49.163319 
L 28.957589 -49.159113 
L 29.009746 -49.155005 
L 29.061903 -49.150993 
L 29.11406 -49.147076 
L 29.166217 -49.143253 
L 29.218375 -49.139523 
L 29.270532 -49.135884 
L 29.322689 -49.132336 
L 29.374846 -49.128878 
L 29.427003 -49.125508 
L 29.47916 -49.122225 
L 29.531317 -49.119028 
L 29.583474 -49.115917 
L 29.635631 -49.112889 
L 29.687788 -49.109943 
L 29.739945 -49.10708 
L 29.792102 -49.104296 
L 29.844259 -49.101593 
L 29.896416 -49.098967 
L 29.948573 -49.096418 
L 30.00073 -49.093946 
L 30.052887 -49.091548 
L 30.105044 -49.089223 
L 30.157201 -49.086972 
L 30.209358 -49.084791 
L 30.261515 -49.082681 
L 30.313672 -49.080641 
L 30.365829 -49.078668 
L 30.417986 -49.076762 
L 30.470143 -49.074922 
L 30.522301 -49.073146 
L 30.574458 -49.071434 
L 30.626615 -49.069785 
L 30.678772 -49.068196 
L 30.730929 -49.066668 
L 30.783086 -49.065199 
L 30.835243 -49.063788 
L 30.8874 -49.062433 
L 30.939557 -49.061134 
L 30.991714 -49.05989 
L 31.043871 -49.058698 
L 31.096028 -49.05756 
L 31.148185 -49.056472 
L 31.200342 -49.055434 
L 31.252499 -49.054445 
L 31.304656 -49.053504 
L 31.356813 -49.052609 
L 31.40897 -49.05176 
L 31.461127 -49.050955 
L 31.513284 -49.050193 
L 31.565441 -49.049473 
L 31.617598 -49.048795 
L 31.669755 -49.048156 
L 31.721912 -49.047555 
L 31.77407 -49.046993 
L 31.826227 -49.046466 
L 31.878384 -49.045975 
L 31.930541 -49.045519 
L 31.982698 -49.045095 
L 32.034855 -49.044703 
L 32.087012 -49.044342 
L 32.139169 -49.044011 
L 32.191326 -49.043708 
L 32.243483 -49.043432 
L 32.29564 -49.043183 
L 32.347797 -49.042959 
L 32.399954 -49.042759 
L 32.452111 -49.042581 
L 32.504268 -49.042426 
L 32.556425 -49.042291 
L 32.608582 -49.042176 
L 32.660739 -49.042079 
L 32.712896 -49.041999 
L 32.765053 -49.041935 
L 32.81721 -49.041887 
L 32.869367 -49.041852 
L 32.921524 -49.04183 
L 32.973681 -49.041819 
L 33.025839 -49.041819 
L 33.077996 -49.04183 
L 33.130153 -49.041852 
L 33.18231 -49.041887 
L 33.234467 -49.041935 
L 33.286624 -49.041999 
L 33.338781 -49.042079 
L 33.390938 -49.042176 
L 33.443095 -49.042291 
L 33.495252 -49.042426 
L 33.547409 -49.042581 
L 33.599566 -49.042759 
L 33.651723 -49.042959 
L 33.70388 -49.043183 
L 33.756037 -49.043432 
L 33.808194 -49.043708 
L 33.860351 -49.044011 
L 33.912508 -49.044342 
L 33.964665 -49.044703 
L 34.016822 -49.045095 
L 34.068979 -49.045519 
L 34.121136 -49.045975 
L 34.173293 -49.046466 
L 34.22545 -49.046993 
L 34.277608 -49.047555 
L 34.329765 -49.048156 
L 34.381922 -49.048795 
L 34.434079 -49.049473 
L 34.486236 -49.050193 
L 34.538393 -49.050955 
L 34.59055 -49.05176 
L 34.642707 -49.052609 
L 34.694864 -49.053504 
L 34.747021 -49.054445 
L 34.799178 -49.055434 
L 34.851335 -49.056472 
L 34.903492 -49.05756 
L 34.955649 -49.058698 
L 35.007806 -49.05989 
L 35.059963 -49.061134 
L 35.11212 -49.062433 
L 35.164277 -49.063788 
L 35.216434 -49.065199 
L 35.268591 -49.066668 
L 35.320748 -49.068196 
L 35.372905 -49.069785 
L 35.425062 -49.071434 
L 35.477219 -49.073146 
L 35.529377 -49.074922 
L 35.581534 -49.076762 
L 35.633691 -49.078668 
L 35.685848 -49.080641 
L 35.738005 -49.082681 
L 35.790162 -49.084791 
L 35.842319 -49.086972 
L 35.894476 -49.089223 
L 35.946633 -49.091548 
L 35.99879 -49.093946 
L 36.050947 -49.096418 
L 36.103104 -49.098967 
L 36.155261 -49.101593 
L 36.207418 -49.104296 
L 36.259575 -49.10708 
L 36.311732 -49.109943 
L 36.363889 -49.112889 
L 36.416046 -49.115917 
L 36.468203 -49.119028 
L 36.52036 -49.122225 
L 36.572517 -49.125508 
L 36.624674 -49.128878 
L 36.676831 -49.132336 
L 36.728988 -49.135884 
L 36.781145 -49.139523 
L 36.833303 -49.143253 
L 36.88546 -49.147076 
L 36.937617 -49.150993 
L 36.989774 -49.155005 
L 37.041931 -49.159113 
L 37.094088 -49.163319 
L 37.146245 -49.167624 
L 37.198402 -49.172027 
L 37.250559 -49.176532 
L 37.302716 -49.181139 
L 37.354873 -49.185848 
L 37.40703 -49.190662 
L 37.459187 -49.195581 
L 37.511344 -49.200607 
L 37.563501 -49.20574 
L 37.615658 -49.210981 
L 37.667815 -49.216333 
L 37.719972 -49.221795 
L 37.772129 -49.227369 
L 37.824286 -49.233057 
L 37.876443 -49.238859 
L 37.9286 -49.244776 
L 37.980757 -49.25081 
L 38.032914 -49.256962 
L 38.085072 -49.263232 
L 38.137229 -49.269623 
L 38.189386 -49.276134 
L 38.241543 -49.282768 
L 38.2937 -49.289525 
L 38.345857 -49.296406 
L 38.398014 -49.303413 
L 38.450171 -49.310547 
L 38.502328 -49.317809 
L 38.554485 -49.325199 
L 38.606642 -49.33272 
L 38.658799 -49.340372 
L 38.710956 -49.348156 
L 38.763113 -49.356074 
L 38.81527 -49.364127 
L 38.867427 -49.372315 
L 38.919584 -49.38064 
L 38.971741 -49.389103 
L 39.023898 -49.397705 
L 39.076055 -49.406448 
L 39.128212 -49.415332 
L 39.180369 -49.424358 
L 39.232526 -49.433528 
L 39.284683 -49.442843 
L 39.336841 -49.452304 
L 39.388998 -49.461912 
L 39.441155 -49.471668 
L 39.493312 -49.481573 
L 39.545469 -49.491629 
L 39.597626 -49.501836 
L 39.649783 -49.512196 
L 39.70194 -49.52271 
L 39.754097 -49.533379 
L 39.806254 -49.544204 
L 39.858411 -49.555186 
L 39.910568 -49.566326 
L 39.962725 -49.577626 
L 40.014882 -49.589087 
L 40.067039 -49.600709 
L 40.119196 -49.612494 
L 40.171353 -49.624443 
L 40.22351 -49.636557 
L 40.275667 -49.648837 
L 40.327824 -49.661285 
L 40.379981 -49.673901 
L 40.432138 -49.686686 
L 40.484295 -49.699643 
L 40.536452 -49.712771 
L 40.58861 -49.726073 
L 40.640767 -49.739548 
L 40.692924 -49.753199 
L 40.745081 -49.767026 
L 40.797238 -49.781031 
L 40.849395 -49.795214 
L 40.901552 -49.809577 
L 40.953709 -49.824121 
L 41.005866 -49.838847 
L 41.058023 -49.853757 
L 41.11018 -49.86885 
L 41.162337 -49.884129 
L 41.214494 -49.899595 
L 41.266651 -49.915248 
L 41.318808 -49.93109 
L 41.370965 -49.947122 
L 41.423122 -49.963344 
L 41.475279 -49.97976 
L 41.527436 -49.996368 
L 41.579593 -50.013171 
L 41.63175 -50.03017 
L 41.683907 -50.047365 
L 41.736064 -50.064758 
L 41.788221 -50.08235 
L 41.840378 -50.100142 
L 41.892536 -50.118135 
L 41.944693 -50.136331 
L 41.99685 -50.15473 
L 42.049007 -50.173334 
L 42.101164 -50.192143 
L 42.153321 -50.21116 
L 42.205478 -50.230384 
L 42.257635 -50.249818 
L 42.309792 -50.269461 
L 42.361949 -50.289317 
L 42.414106 -50.309384 
L 42.466263 -50.329666 
L 42.51842 -50.350162 
L 42.570577 -50.370874 
L 42.622734 -50.391802 
L 42.674891 -50.41295 
L 42.727048 -50.434316 
L 42.779205 -50.455903 
L 42.831362 -50.477711 
L 42.883519 -50.499742 
L 42.935676 -50.521997 
L 42.987833 -50.544477 
L 43.03999 -50.567183 
L 43.092147 -50.590116 
L 43.144305 -50.613277 
L 43.196462 -50.636668 
L 43.248619 -50.660289 
L 43.300776 -50.684142 
L 43.352933 -50.708228 
L 43.40509 -50.732548 
L 43.457247 -50.757103 
L 43.509404 -50.781894 
L 43.561561 -50.806922 
L 43.613718 -50.832189 
L 43.665875 -50.857696 
L 43.718032 -50.883443 
L 43.770189 -50.909432 
L 43.822346 -50.935664 
L 43.874503 -50.962141 
L 43.92666 -50.988862 
L 43.978817 -51.01583 
L 44.030974 -51.043045 
L 44.083131 -51.070509 
L 44.135288 -51.098223 
L 44.187445 -51.126188 
L 44.239602 -51.154404 
L 44.291759 -51.182874 
L 44.343916 -51.211598 
L 44.396074 -51.240578 
L 44.448231 -51.269814 
L 44.500388 -51.299307 
L 44.552545 -51.32906 
L 44.604702 -51.359072 
L 44.656859 -51.389346 
L 44.709016 -51.419881 
L 44.761173 -51.45068 
L 44.81333 -51.481743 
L 44.865487 -51.513072 
L 44.917644 -51.544668 
L 44.969801 -51.576531 
L 45.021958 -51.608664 
L 45.074115 -51.641066 
L 45.126272 -51.67374 
L 45.178429 -51.706686 
L 45.230586 -51.739905 
L 45.282743 -51.773399 
L 45.3349 -51.807169 
L 45.387057 -51.841216 
L 45.439214 -51.87554 
L 45.491371 -51.910144 
L 45.543528 -51.945028 
L 45.595685 -51.980193 
L 45.647843 -52.015641 
L 45.7 -52.051372 
L 45.752157 -52.087389 
L 45.804314 -52.123691 
L 45.856471 -52.16028 
L 45.908628 -52.197157 
L 45.960785 -52.234323 
L 46.012942 -52.27178 
L 46.065099 -52.309529 
L 46.117256 -52.34757 
L 46.169413 -52.385905 
L 46.22157 -52.424534 
L 46.273727 -52.46346 
L 46.325884 -52.502683 
L 46.378041 -52.542204 
L 46.430198 -52.582025 
L 46.482355 -52.622146 
L 46.534512 -52.662569 
L 46.586669 -52.703295 
L 46.638826 -52.744324 
L 46.690983 -52.785659 
L 46.74314 -52.8273 
L 46.795297 -52.869248 
L 46.847454 -52.911505 
L 46.899611 -52.954071 
L 46.951769 -52.996948 
L 47.003926 -53.040137 
L 47.056083 -53.083639 
L 47.10824 -53.127455 
L 47.160397 -53.171586 
L 47.212554 -53.216033 
L 47.264711 -53.260798 
L 47.316868 -53.305882 
L 47.369025 -53.351285 
L 47.421182 -53.39701 
L 47.473339 -53.443056 
L 47.525496 -53.489425 
L 47.577653 -53.536119 
L 47.62981 -53.583138 
L 47.681967 -53.630483 
L 47.734124 -53.678156 
L 47.786281 -53.726158 
L 47.838438 -53.77449 
L 47.890595 -53.823153 
L 47.942752 -53.872148 
L 47.994909 -53.921476 
L 48.047066 -53.971139 
L 48.099223 -54.021137 
L 48.15138 -54.071472 
L 48.203538 -54.122145 
L 48.255695 -54.173157 
L 48.307852 -54.224508 
L 48.360009 -54.276201 
L 48.412166 -54.328237 
L 48.464323 -54.380615 
L 48.51648 -54.433339 
L 48.568637 -54.486408 
L 48.620794 -54.539823 
L 48.672951 -54.593587 
L 48.725108 -54.6477 
L 48.777265 -54.702163 
L 48.829422 -54.756977 
L 48.881579 -54.812144 
L 48.933736 -54.867665 
L 48.985893 -54.92354 
L 49.03805 -54.979771 
L 49.090207 -55.036359 
L 49.142364 -55.093306 
L 49.194521 -55.150611 
L 49.246678 -55.208277 
L 49.298835 -55.266304 
L 49.350992 -55.324694 
L 49.403149 -55.383448 
L 49.455307 -55.442567 
L 49.507464 -55.502051 
L 49.559621 -55.561903 
L 49.611778 -55.622123 
L 49.663935 -55.682713 
L 49.716092 -55.743673 
L 49.768249 -55.805005 
L 49.820406 -55.866709 
L 49.872563 -55.928788 
L 49.92472 -55.991241 
L 49.976877 -56.054071 
L 50.029034 -56.117278 
L 50.081191 -56.180863 
L 50.133348 -56.244828 
L 50.185505 -56.309174 
L 50.237662 -56.373901 
L 50.289819 -56.439012 
L 50.341976 -56.504506 
L 50.394133 -56.570384 
L 50.44629 -56.636595 
L 50.498447 -56.703038 
L 50.550604 -56.769614 
L 50.602761 -56.83622 
L 50.654918 -56.902755 
L 50.707076 -56.969116 
L 50.759233 -57.035204 
L 50.81139 -57.100915 
L 50.863547 -57.166148 
L 50.915704 -57.230803 
L 50.967861 -57.294776 
L 51.020018 -57.357967 
L 51.072175 -57.420274 
L 51.124332 -57.481596 
L 51.176489 -57.54183 
L 51.228646 -57.600876 
L 51.280803 -57.658632 
L 51.33296 -57.714995 
L 51.385117 -57.769865 
L 51.437274 -57.823141 
L 51.489431 -57.874719 
L 51.541588 -57.9245 
L 51.593745 -57.97238 
L 51.645902 -58.018259 
L 51.698059 -58.062036 
L 51.750216 -58.103608 
L 51.802373 -58.142874 
L 51.85453 -58.179732 
L 51.906687 -58.214081 
L 51.958844 -58.245819 
L 52.011002 -58.274844 
L 52.063159 -58.301056 
L 52.115316 -58.324352 
L 52.167473 -58.344631 
L 52.21963 -58.361792 
L 52.271787 -58.375732 
L 52.323944 -58.38635 
L 52.376101 -58.393545 
L 52.428258 -58.397215 
L 52.480415 -58.397258 
L 52.532572 -58.393573 
L 52.584729 -58.386058 
L 52.636886 -58.374612 
L 52.689043 -58.359133 
L 52.7412 -58.339519 
L 52.793357 -58.315669 
L 52.845514 -58.287482 
L 52.897671 -58.254856 
L 52.949828 -58.217688 
L 53.001985 -58.175878 
L 53.054142 -58.129325 
L 53.106299 -58.077925 
L 53.158456 -58.021579 
L 53.210613 -57.960184 
L 53.262771 -57.893638 
L 53.314928 -57.821841 
L 53.367085 -57.74469 
L 53.419242 -57.662085 
L 53.471399 -57.573922 
L 53.523556 -57.480102 
L 53.575713 -57.380521 
L 53.62787 -57.27508 
L 53.680027 -57.163675 
L 53.732184 -57.046206 
L 53.784341 -56.922571 
L 53.836498 -56.792668 
L 53.888655 -56.656396 
L 53.940812 -56.513653 
L 53.992969 -56.364337 
L 54.045126 -56.208348 
L 54.097283 -56.045583 
L 54.14944 -55.875941 
L 54.201597 -55.69932 
L 54.253754 -55.515619 
L 54.305911 -55.324736 
L 54.358068 -55.12657 
L 54.410225 -54.921019 
L 54.462382 -54.707981 
L 54.51454 -54.487354 
L 54.566697 -54.259038 
L 54.618854 -54.022931 
L 54.671011 -53.778931 
L 54.723168 -53.526936 
L 54.775325 -53.266845 
L 54.827482 -52.998557 
L 54.879639 -52.721969 
L 54.931796 -52.43698 
L 54.983953 -52.143489 
L 55.03611 -51.841394 
L 55.088267 -51.530593 
L 55.140424 -51.210986 
L 55.192581 -50.882469 
L 55.244738 -50.544943 
L 55.296895 -50.198304 
L 55.349052 -49.842452 
L 55.401209 -49.477285 
L 55.453366 -49.102701 
L 55.505523 -48.718599 
L 55.55768 -48.324877 
L 55.609837 -47.921443 
L 55.661994 -47.508338 
L 55.714151 -47.085706 
L 55.766309 -46.653694 
L 55.818466 -46.212449 
L 55.870623 -45.762118 
L 55.92278 -45.302848 
L 55.974937 -44.834787 
L 56.027094 -44.358081 
L 56.079251 -43.872876 
L 56.131408 -43.379321 
L 56.183565 -42.877561 
L 56.235722 -42.367745 
L 56.287879 -41.850019 
L 56.340036 -41.324529 
L 56.392193 -40.791424 
L 56.44435 -40.250849 
L 56.496507 -39.702953 
L 56.548664 -39.147881 
L 56.600821 -38.585781 
L 56.652978 -38.0168 
L 56.705135 -37.441084 
L 56.757292 -36.858782 
L 56.809449 -36.270039 
L 56.861606 -35.675003 
L 56.913763 -35.073821 
L 56.96592 -34.46664 
L 57.018077 -33.853606 
L 57.070235 -33.234867 
L 57.122392 -32.610569 
L 57.174549 -31.980861 
L 57.226706 -31.345888 
L 57.278863 -30.705797 
L 57.33102 -30.060736 
L 57.383177 -29.410852 
L 57.435334 -28.756291 
L 57.487491 -28.097201 
L 57.539648 -27.433728 
L 57.591805 -26.76602 
L 57.643962 -26.094223 
L 57.696119 -25.418485 
L 57.748276 -24.738952 
L 57.800433 -24.055772 
L 57.85259 -23.369091 
L 57.904747 -22.679057 
L 57.956904 -21.985815 
L 58.009061 -21.289515 
L 58.061218 -20.590301 
L 58.113375 -19.888322 
L 58.165532 -19.183724 
L 58.217689 -18.476654 
L 58.269846 -17.76726 
L 58.322004 -17.055688 
L 58.374161 -16.342085 
L 58.426318 -15.626598 
L 58.478475 -14.909375 
L 58.530632 -14.190561 
L 58.582789 -13.470305 
L 58.634946 -12.748753 
L 58.687103 -12.026052 
L 58.73926 -11.302349 
L 58.791417 -10.577791 
L 58.843574 -9.852525 
L 58.895731 -9.126699 
L 58.947888 -8.400458 
L 59.000045 -7.67395 
L 59.052202 -6.947318 
L 59.052202 -6.947318 
L 59.052202 -6.947318 
L 59.000045 -7.123452 
L 58.947888 -7.299582 
L 58.895731 -7.4757 
L 58.843574 -7.651803 
L 58.791417 -7.827885 
L 58.73926 -8.00394 
L 58.687103 -8.179963 
L 58.634946 -8.35595 
L 58.582789 -8.531894 
L 58.530632 -8.70779 
L 58.478475 -8.883634 
L 58.426318 -9.059419 
L 58.374161 -9.235141 
L 58.322004 -9.410795 
L 58.269846 -9.586374 
L 58.217689 -9.761874 
L 58.165532 -9.937289 
L 58.113375 -10.112614 
L 58.061218 -10.287844 
L 58.009061 -10.462974 
L 57.956904 -10.637998 
L 57.904747 -10.812911 
L 57.85259 -10.987707 
L 57.800433 -11.162382 
L 57.748276 -11.33693 
L 57.696119 -11.511345 
L 57.643962 -11.685623 
L 57.591805 -11.859759 
L 57.539648 -12.033746 
L 57.487491 -12.20758 
L 57.435334 -12.381255 
L 57.383177 -12.554766 
L 57.33102 -12.728108 
L 57.278863 -12.901276 
L 57.226706 -13.074264 
L 57.174549 -13.247066 
L 57.122392 -13.419678 
L 57.070235 -13.592095 
L 57.018077 -13.76431 
L 56.96592 -13.936319 
L 56.913763 -14.108117 
L 56.861606 -14.279698 
L 56.809449 -14.451057 
L 56.757292 -14.622188 
L 56.705135 -14.793087 
L 56.652978 -14.963747 
L 56.600821 -15.134165 
L 56.548664 -15.304333 
L 56.496507 -15.474248 
L 56.44435 -15.643904 
L 56.392193 -15.813295 
L 56.340036 -15.982417 
L 56.287879 -16.151263 
L 56.235722 -16.319829 
L 56.183565 -16.48811 
L 56.131408 -16.6561 
L 56.079251 -16.823793 
L 56.027094 -16.991185 
L 55.974937 -17.158271 
L 55.92278 -17.325044 
L 55.870623 -17.4915 
L 55.818466 -17.657633 
L 55.766309 -17.823439 
L 55.714151 -17.988911 
L 55.661994 -18.154045 
L 55.609837 -18.318835 
L 55.55768 -18.483276 
L 55.505523 -18.647362 
L 55.453366 -18.811089 
L 55.401209 -18.974451 
L 55.349052 -19.137443 
L 55.296895 -19.30006 
L 55.244738 -19.462295 
L 55.192581 -19.624145 
L 55.140424 -19.785603 
L 55.088267 -19.946664 
L 55.03611 -20.107323 
L 54.983953 -20.267576 
L 54.931796 -20.427415 
L 54.879639 -20.586837 
L 54.827482 -20.745836 
L 54.775325 -20.904406 
L 54.723168 -21.062543 
L 54.671011 -21.220241 
L 54.618854 -21.377494 
L 54.566697 -21.534298 
L 54.51454 -21.690647 
L 54.462382 -21.846536 
L 54.410225 -22.00196 
L 54.358068 -22.156912 
L 54.305911 -22.311389 
L 54.253754 -22.465385 
L 54.201597 -22.618894 
L 54.14944 -22.771911 
L 54.097283 -22.924431 
L 54.045126 -23.076448 
L 53.992969 -23.227958 
L 53.940812 -23.378955 
L 53.888655 -23.529433 
L 53.836498 -23.679388 
L 53.784341 -23.828814 
L 53.732184 -23.977706 
L 53.680027 -24.126059 
L 53.62787 -24.273866 
L 53.575713 -24.421124 
L 53.523556 -24.567826 
L 53.471399 -24.713968 
L 53.419242 -24.859544 
L 53.367085 -25.004548 
L 53.314928 -25.148976 
L 53.262771 -25.292823 
L 53.210613 -25.436082 
L 53.158456 -25.578749 
L 53.106299 -25.720818 
L 53.054142 -25.862284 
L 53.001985 -26.003142 
L 52.949828 -26.143387 
L 52.897671 -26.283013 
L 52.845514 -26.422015 
L 52.793357 -26.560387 
L 52.7412 -26.698125 
L 52.689043 -26.835223 
L 52.636886 -26.971675 
L 52.584729 -27.107477 
L 52.532572 -27.242623 
L 52.480415 -27.377109 
L 52.428258 -27.510927 
L 52.376101 -27.644074 
L 52.323944 -27.776544 
L 52.271787 -27.908332 
L 52.21963 -28.039433 
L 52.167473 -28.16984 
L 52.115316 -28.299549 
L 52.063159 -28.428556 
L 52.011002 -28.556859 
L 51.958844 -28.684462 
L 51.906687 -28.811366 
L 51.85453 -28.937572 
L 51.802373 -29.063083 
L 51.750216 -29.187901 
L 51.698059 -29.312027 
L 51.645902 -29.435464 
L 51.593745 -29.558213 
L 51.541588 -29.680277 
L 51.489431 -29.801657 
L 51.437274 -29.922355 
L 51.385117 -30.042373 
L 51.33296 -30.161713 
L 51.280803 -30.280377 
L 51.228646 -30.398367 
L 51.176489 -30.515685 
L 51.124332 -30.632333 
L 51.072175 -30.748312 
L 51.020018 -30.863625 
L 50.967861 -30.978273 
L 50.915704 -31.092258 
L 50.863547 -31.205583 
L 50.81139 -31.318249 
L 50.759233 -31.430259 
L 50.707076 -31.541613 
L 50.654918 -31.652315 
L 50.602761 -31.762365 
L 50.550604 -31.871766 
L 50.498447 -31.98052 
L 50.44629 -32.088628 
L 50.394133 -32.196093 
L 50.341976 -32.302917 
L 50.289819 -32.409101 
L 50.237662 -32.514648 
L 50.185505 -32.619558 
L 50.133348 -32.723835 
L 50.081191 -32.82748 
L 50.029034 -32.930496 
L 49.976877 -33.032883 
L 49.92472 -33.134643 
L 49.872563 -33.23578 
L 49.820406 -33.336295 
L 49.768249 -33.436189 
L 49.716092 -33.535464 
L 49.663935 -33.634123 
L 49.611778 -33.732168 
L 49.559621 -33.8296 
L 49.507464 -33.926421 
L 49.455307 -34.022633 
L 49.403149 -34.118239 
L 49.350992 -34.213239 
L 49.298835 -34.307636 
L 49.246678 -34.401432 
L 49.194521 -34.494629 
L 49.142364 -34.587229 
L 49.090207 -34.679233 
L 49.03805 -34.770643 
L 48.985893 -34.861463 
L 48.933736 -34.951692 
L 48.881579 -35.041334 
L 48.829422 -35.13039 
L 48.777265 -35.218862 
L 48.725108 -35.306752 
L 48.672951 -35.394062 
L 48.620794 -35.480794 
L 48.568637 -35.56695 
L 48.51648 -35.652532 
L 48.464323 -35.737541 
L 48.412166 -35.821979 
L 48.360009 -35.90585 
L 48.307852 -35.989153 
L 48.255695 -36.071892 
L 48.203538 -36.154069 
L 48.15138 -36.235684 
L 48.099223 -36.31674 
L 48.047066 -36.39724 
L 47.994909 -36.477184 
L 47.942752 -36.556576 
L 47.890595 -36.635416 
L 47.838438 -36.713706 
L 47.786281 -36.79145 
L 47.734124 -36.868648 
L 47.681967 -36.945302 
L 47.62981 -37.021415 
L 47.577653 -37.096988 
L 47.525496 -37.172023 
L 47.473339 -37.246522 
L 47.421182 -37.320488 
L 47.369025 -37.393921 
L 47.316868 -37.466824 
L 47.264711 -37.5392 
L 47.212554 -37.611048 
L 47.160397 -37.682373 
L 47.10824 -37.753175 
L 47.056083 -37.823456 
L 47.003926 -37.893219 
L 46.951769 -37.962466 
L 46.899611 -38.031197 
L 46.847454 -38.099416 
L 46.795297 -38.167124 
L 46.74314 -38.234323 
L 46.690983 -38.301014 
L 46.638826 -38.367201 
L 46.586669 -38.432885 
L 46.534512 -38.498067 
L 46.482355 -38.562749 
L 46.430198 -38.626935 
L 46.378041 -38.690624 
L 46.325884 -38.753821 
L 46.273727 -38.816525 
L 46.22157 -38.87874 
L 46.169413 -38.940466 
L 46.117256 -39.001707 
L 46.065099 -39.062464 
L 46.012942 -39.122739 
L 45.960785 -39.182533 
L 45.908628 -39.24185 
L 45.856471 -39.30069 
L 45.804314 -39.359055 
L 45.752157 -39.416948 
L 45.7 -39.474371 
L 45.647843 -39.531325 
L 45.595685 -39.587812 
L 45.543528 -39.643834 
L 45.491371 -39.699393 
L 45.439214 -39.754492 
L 45.387057 -39.809131 
L 45.3349 -39.863313 
L 45.282743 -39.91704 
L 45.230586 -39.970314 
L 45.178429 -40.023136 
L 45.126272 -40.075509 
L 45.074115 -40.127435 
L 45.021958 -40.178914 
L 44.969801 -40.229951 
L 44.917644 -40.280545 
L 44.865487 -40.330699 
L 44.81333 -40.380416 
L 44.761173 -40.429696 
L 44.709016 -40.478543 
L 44.656859 -40.526957 
L 44.604702 -40.574941 
L 44.552545 -40.622496 
L 44.500388 -40.669626 
L 44.448231 -40.71633 
L 44.396074 -40.762613 
L 44.343916 -40.808474 
L 44.291759 -40.853917 
L 44.239602 -40.898943 
L 44.187445 -40.943554 
L 44.135288 -40.987752 
L 44.083131 -41.031539 
L 44.030974 -41.074917 
L 43.978817 -41.117888 
L 43.92666 -41.160454 
L 43.874503 -41.202616 
L 43.822346 -41.244376 
L 43.770189 -41.285738 
L 43.718032 -41.326701 
L 43.665875 -41.367269 
L 43.613718 -41.407443 
L 43.561561 -41.447225 
L 43.509404 -41.486618 
L 43.457247 -41.525622 
L 43.40509 -41.56424 
L 43.352933 -41.602474 
L 43.300776 -41.640326 
L 43.248619 -41.677798 
L 43.196462 -41.714891 
L 43.144305 -41.751608 
L 43.092147 -41.78795 
L 43.03999 -41.823919 
L 42.987833 -41.859518 
L 42.935676 -41.894748 
L 42.883519 -41.929611 
L 42.831362 -41.964109 
L 42.779205 -41.998244 
L 42.727048 -42.032018 
L 42.674891 -42.065433 
L 42.622734 -42.09849 
L 42.570577 -42.131192 
L 42.51842 -42.163541 
L 42.466263 -42.195538 
L 42.414106 -42.227186 
L 42.361949 -42.258485 
L 42.309792 -42.28944 
L 42.257635 -42.32005 
L 42.205478 -42.350318 
L 42.153321 -42.380247 
L 42.101164 -42.409837 
L 42.049007 -42.439091 
L 41.99685 -42.468011 
L 41.944693 -42.496599 
L 41.892536 -42.524856 
L 41.840378 -42.552785 
L 41.788221 -42.580387 
L 41.736064 -42.607664 
L 41.683907 -42.634619 
L 41.63175 -42.661253 
L 41.579593 -42.687568 
L 41.527436 -42.713567 
L 41.475279 -42.73925 
L 41.423122 -42.76462 
L 41.370965 -42.789679 
L 41.318808 -42.814428 
L 41.266651 -42.838871 
L 41.214494 -42.863007 
L 41.162337 -42.886841 
L 41.11018 -42.910373 
L 41.058023 -42.933605 
L 41.005866 -42.956539 
L 40.953709 -42.979178 
L 40.901552 -43.001522 
L 40.849395 -43.023575 
L 40.797238 -43.045337 
L 40.745081 -43.066812 
L 40.692924 -43.088 
L 40.640767 -43.108904 
L 40.58861 -43.129525 
L 40.536452 -43.149866 
L 40.484295 -43.169929 
L 40.432138 -43.189715 
L 40.379981 -43.209226 
L 40.327824 -43.228464 
L 40.275667 -43.247432 
L 40.22351 -43.26613 
L 40.171353 -43.284562 
L 40.119196 -43.302728 
L 40.067039 -43.320631 
L 40.014882 -43.338273 
L 39.962725 -43.355656 
L 39.910568 -43.372781 
L 39.858411 -43.389651 
L 39.806254 -43.406267 
L 39.754097 -43.422631 
L 39.70194 -43.438746 
L 39.649783 -43.454613 
L 39.597626 -43.470234 
L 39.545469 -43.485611 
L 39.493312 -43.500746 
L 39.441155 -43.515641 
L 39.388998 -43.530298 
L 39.336841 -43.544718 
L 39.284683 -43.558904 
L 39.232526 -43.572857 
L 39.180369 -43.58658 
L 39.128212 -43.600075 
L 39.076055 -43.613342 
L 39.023898 -43.626385 
L 38.971741 -43.639205 
L 38.919584 -43.651804 
L 38.867427 -43.664184 
L 38.81527 -43.676347 
L 38.763113 -43.688295 
L 38.710956 -43.70003 
L 38.658799 -43.711553 
L 38.606642 -43.722867 
L 38.554485 -43.733973 
L 38.502328 -43.744874 
L 38.450171 -43.755571 
L 38.398014 -43.766066 
L 38.345857 -43.776362 
L 38.2937 -43.786459 
L 38.241543 -43.796361 
L 38.189386 -43.806069 
L 38.137229 -43.815584 
L 38.085072 -43.824909 
L 38.032914 -43.834046 
L 37.980757 -43.842997 
L 37.9286 -43.851763 
L 37.876443 -43.860347 
L 37.824286 -43.86875 
L 37.772129 -43.876974 
L 37.719972 -43.885022 
L 37.667815 -43.892894 
L 37.615658 -43.900594 
L 37.563501 -43.908123 
L 37.511344 -43.915483 
L 37.459187 -43.922675 
L 37.40703 -43.929702 
L 37.354873 -43.936566 
L 37.302716 -43.943269 
L 37.250559 -43.949812 
L 37.198402 -43.956198 
L 37.146245 -43.962427 
L 37.094088 -43.968504 
L 37.041931 -43.974428 
L 36.989774 -43.980202 
L 36.937617 -43.985829 
L 36.88546 -43.991309 
L 36.833303 -43.996646 
L 36.781145 -44.00184 
L 36.728988 -44.006893 
L 36.676831 -44.011809 
L 36.624674 -44.016588 
L 36.572517 -44.021232 
L 36.52036 -44.025744 
L 36.468203 -44.030126 
L 36.416046 -44.034378 
L 36.363889 -44.038504 
L 36.311732 -44.042504 
L 36.259575 -44.046382 
L 36.207418 -44.050139 
L 36.155261 -44.053776 
L 36.103104 -44.057296 
L 36.050947 -44.060701 
L 35.99879 -44.063993 
L 35.946633 -44.067173 
L 35.894476 -44.070243 
L 35.842319 -44.073206 
L 35.790162 -44.076063 
L 35.738005 -44.078817 
L 35.685848 -44.081468 
L 35.633691 -44.08402 
L 35.581534 -44.086473 
L 35.529377 -44.08883 
L 35.477219 -44.091094 
L 35.425062 -44.093264 
L 35.372905 -44.095345 
L 35.320748 -44.097337 
L 35.268591 -44.099243 
L 35.216434 -44.101064 
L 35.164277 -44.102802 
L 35.11212 -44.104459 
L 35.059963 -44.106038 
L 35.007806 -44.10754 
L 34.955649 -44.108967 
L 34.903492 -44.110321 
L 34.851335 -44.111603 
L 34.799178 -44.112816 
L 34.747021 -44.113963 
L 34.694864 -44.115043 
L 34.642707 -44.11606 
L 34.59055 -44.117016 
L 34.538393 -44.117912 
L 34.486236 -44.11875 
L 34.434079 -44.119533 
L 34.381922 -44.120262 
L 34.329765 -44.120938 
L 34.277608 -44.121565 
L 34.22545 -44.122143 
L 34.173293 -44.122676 
L 34.121136 -44.123164 
L 34.068979 -44.12361 
L 34.016822 -44.124015 
L 33.964665 -44.124382 
L 33.912508 -44.124712 
L 33.860351 -44.125008 
L 33.808194 -44.125271 
L 33.756037 -44.125503 
L 33.70388 -44.125706 
L 33.651723 -44.125882 
L 33.599566 -44.126033 
L 33.547409 -44.126161 
L 33.495252 -44.126267 
L 33.443095 -44.126355 
L 33.390938 -44.126425 
L 33.338781 -44.126479 
L 33.286624 -44.12652 
L 33.234467 -44.12655 
L 33.18231 -44.126569 
L 33.130153 -44.126581 
L 33.077996 -44.126587 
L 33.025839 -44.12659 
L 32.973681 -44.12659 
L 32.921524 -44.126587 
L 32.869367 -44.126581 
L 32.81721 -44.126569 
L 32.765053 -44.12655 
L 32.712896 -44.12652 
L 32.660739 -44.126479 
L 32.608582 -44.126425 
L 32.556425 -44.126355 
L 32.504268 -44.126267 
L 32.452111 -44.126161 
L 32.399954 -44.126033 
L 32.347797 -44.125882 
L 32.29564 -44.125706 
L 32.243483 -44.125503 
L 32.191326 -44.125271 
L 32.139169 -44.125008 
L 32.087012 -44.124712 
L 32.034855 -44.124382 
L 31.982698 -44.124015 
L 31.930541 -44.12361 
L 31.878384 -44.123164 
L 31.826227 -44.122676 
L 31.77407 -44.122143 
L 31.721912 -44.121565 
L 31.669755 -44.120938 
L 31.617598 -44.120262 
L 31.565441 -44.119533 
L 31.513284 -44.11875 
L 31.461127 -44.117912 
L 31.40897 -44.117016 
L 31.356813 -44.11606 
L 31.304656 -44.115043 
L 31.252499 -44.113963 
L 31.200342 -44.112816 
L 31.148185 -44.111603 
L 31.096028 -44.110321 
L 31.043871 -44.108967 
L 30.991714 -44.10754 
L 30.939557 -44.106038 
L 30.8874 -44.104459 
L 30.835243 -44.102802 
L 30.783086 -44.101064 
L 30.730929 -44.099243 
L 30.678772 -44.097337 
L 30.626615 -44.095345 
L 30.574458 -44.093264 
L 30.522301 -44.091094 
L 30.470143 -44.08883 
L 30.417986 -44.086473 
L 30.365829 -44.08402 
L 30.313672 -44.081468 
L 30.261515 -44.078817 
L 30.209358 -44.076063 
L 30.157201 -44.073206 
L 30.105044 -44.070243 
L 30.052887 -44.067173 
L 30.00073 -44.063993 
L 29.948573 -44.060701 
L 29.896416 -44.057296 
L 29.844259 -44.053776 
L 29.792102 -44.050139 
L 29.739945 -44.046382 
L 29.687788 -44.042504 
L 29.635631 -44.038504 
L 29.583474 -44.034378 
L 29.531317 -44.030126 
L 29.47916 -44.025744 
L 29.427003 -44.021232 
L 29.374846 -44.016588 
L 29.322689 -44.011809 
L 29.270532 -44.006893 
L 29.218375 -44.00184 
L 29.166217 -43.996646 
L 29.11406 -43.991309 
L 29.061903 -43.985829 
L 29.009746 -43.980202 
L 28.957589 -43.974428 
L 28.905432 -43.968504 
L 28.853275 -43.962427 
L 28.801118 -43.956198 
L 28.748961 -43.949812 
L 28.696804 -43.943269 
L 28.644647 -43.936566 
L 28.59249 -43.929702 
L 28.540333 -43.922675 
L 28.488176 -43.915483 
L 28.436019 -43.908123 
L 28.383862 -43.900594 
L 28.331705 -43.892894 
L 28.279548 -43.885022 
L 28.227391 -43.876974 
L 28.175234 -43.86875 
L 28.123077 -43.860347 
L 28.07092 -43.851763 
L 28.018763 -43.842997 
L 27.966606 -43.834046 
L 27.914448 -43.824909 
L 27.862291 -43.815584 
L 27.810134 -43.806069 
L 27.757977 -43.796361 
L 27.70582 -43.786459 
L 27.653663 -43.776362 
L 27.601506 -43.766066 
L 27.549349 -43.755571 
L 27.497192 -43.744874 
L 27.445035 -43.733973 
L 27.392878 -43.722867 
L 27.340721 -43.711553 
L 27.288564 -43.70003 
L 27.236407 -43.688295 
L 27.18425 -43.676347 
L 27.132093 -43.664184 
L 27.079936 -43.651804 
L 27.027779 -43.639205 
L 26.975622 -43.626385 
L 26.923465 -43.613342 
L 26.871308 -43.600075 
L 26.819151 -43.58658 
L 26.766994 -43.572857 
L 26.714837 -43.558904 
L 26.662679 -43.544718 
L 26.610522 -43.530298 
L 26.558365 -43.515641 
L 26.506208 -43.500746 
L 26.454051 -43.485611 
L 26.401894 -43.470234 
L 26.349737 -43.454613 
L 26.29758 -43.438746 
L 26.245423 -43.422631 
L 26.193266 -43.406267 
L 26.141109 -43.389651 
L 26.088952 -43.372781 
L 26.036795 -43.355656 
L 25.984638 -43.338273 
L 25.932481 -43.320631 
L 25.880324 -43.302728 
L 25.828167 -43.284562 
L 25.77601 -43.26613 
L 25.723853 -43.247432 
L 25.671696 -43.228464 
L 25.619539 -43.209226 
L 25.567382 -43.189715 
L 25.515225 -43.169929 
L 25.463068 -43.149866 
L 25.41091 -43.129525 
L 25.358753 -43.108904 
L 25.306596 -43.088 
L 25.254439 -43.066812 
L 25.202282 -43.045337 
L 25.150125 -43.023575 
L 25.097968 -43.001522 
L 25.045811 -42.979178 
L 24.993654 -42.956539 
L 24.941497 -42.933605 
L 24.88934 -42.910373 
L 24.837183 -42.886841 
L 24.785026 -42.863007 
L 24.732869 -42.838871 
L 24.680712 -42.814428 
L 24.628555 -42.789679 
L 24.576398 -42.76462 
L 24.524241 -42.73925 
L 24.472084 -42.713567 
L 24.419927 -42.687568 
L 24.36777 -42.661253 
L 24.315613 -42.634619 
L 24.263456 -42.607664 
L 24.211299 -42.580387 
L 24.159142 -42.552785 
L 24.106984 -42.524856 
L 24.054827 -42.496599 
L 24.00267 -42.468011 
L 23.950513 -42.439091 
L 23.898356 -42.409837 
L 23.846199 -42.380247 
L 23.794042 -42.350318 
L 23.741885 -42.32005 
L 23.689728 -42.28944 
L 23.637571 -42.258485 
L 23.585414 -42.227186 
L 23.533257 -42.195538 
L 23.4811 -42.163541 
L 23.428943 -42.131192 
L 23.376786 -42.09849 
L 23.324629 -42.065433 
L 23.272472 -42.032018 
L 23.220315 -41.998244 
L 23.168158 -41.964109 
L 23.116001 -41.929611 
L 23.063844 -41.894748 
L 23.011687 -41.859518 
L 22.95953 -41.823919 
L 22.907373 -41.78795 
L 22.855215 -41.751608 
L 22.803058 -41.714891 
L 22.750901 -41.677798 
L 22.698744 -41.640326 
L 22.646587 -41.602474 
L 22.59443 -41.56424 
L 22.542273 -41.525622 
L 22.490116 -41.486618 
L 22.437959 -41.447225 
L 22.385802 -41.407443 
L 22.333645 -41.367269 
L 22.281488 -41.326701 
L 22.229331 -41.285738 
L 22.177174 -41.244376 
L 22.125017 -41.202616 
L 22.07286 -41.160454 
L 22.020703 -41.117888 
L 21.968546 -41.074917 
L 21.916389 -41.031539 
L 21.864232 -40.987752 
L 21.812075 -40.943554 
L 21.759918 -40.898943 
L 21.707761 -40.853917 
L 21.655604 -40.808474 
L 21.603446 -40.762613 
L 21.551289 -40.71633 
L 21.499132 -40.669626 
L 21.446975 -40.622496 
L 21.394818 -40.574941 
L 21.342661 -40.526957 
L 21.290504 -40.478543 
L 21.238347 -40.429696 
L 21.18619 -40.380416 
L 21.134033 -40.330699 
L 21.081876 -40.280545 
L 21.029719 -40.229951 
L 20.977562 -40.178914 
L 20.925405 -40.127435 
L 20.873248 -40.075509 
L 20.821091 -40.023136 
L 20.768934 -39.970314 
L 20.716777 -39.91704 
L 20.66462 -39.863313 
L 20.612463 -39.809131 
L 20.560306 -39.754492 
L 20.508149 -39.699393 
L 20.455992 -39.643834 
L 20.403835 -39.587812 
L 20.351677 -39.531325 
L 20.29952 -39.474371 
L 20.247363 -39.416948 
L 20.195206 -39.359055 
L 20.143049 -39.30069 
L 20.090892 -39.24185 
L 20.038735 -39.182533 
L 19.986578 -39.122739 
L 19.934421 -39.062464 
L 19.882264 -39.001707 
L 19.830107 -38.940466 
L 19.77795 -38.87874 
L 19.725793 -38.816525 
L 19.673636 -38.753821 
L 19.621479 -38.690624 
L 19.569322 -38.626935 
L 19.517165 -38.562749 
L 19.465008 -38.498067 
L 19.412851 -38.432885 
L 19.360694 -38.367201 
L 19.308537 -38.301014 
L 19.25638 -38.234323 
L 19.204223 -38.167124 
L 19.152066 -38.099416 
L 19.099909 -38.031197 
L 19.047751 -37.962466 
L 18.995594 -37.893219 
L 18.943437 -37.823456 
L 18.89128 -37.753175 
L 18.839123 -37.682373 
L 18.786966 -37.611048 
L 18.734809 -37.5392 
L 18.682652 -37.466824 
L 18.630495 -37.393921 
L 18.578338 -37.320488 
L 18.526181 -37.246522 
L 18.474024 -37.172023 
L 18.421867 -37.096988 
L 18.36971 -37.021415 
L 18.317553 -36.945302 
L 18.265396 -36.868648 
L 18.213239 -36.79145 
L 18.161082 -36.713706 
L 18.108925 -36.635416 
L 18.056768 -36.556576 
L 18.004611 -36.477184 
L 17.952454 -36.39724 
L 17.900297 -36.31674 
L 17.84814 -36.235684 
L 17.795982 -36.154069 
L 17.743825 -36.071892 
L 17.691668 -35.989153 
L 17.639511 -35.90585 
L 17.587354 -35.821979 
L 17.535197 -35.737541 
L 17.48304 -35.652532 
L 17.430883 -35.56695 
L 17.378726 -35.480794 
L 17.326569 -35.394062 
L 17.274412 -35.306752 
L 17.222255 -35.218862 
L 17.170098 -35.13039 
L 17.117941 -35.041334 
L 17.065784 -34.951692 
L 17.013627 -34.861463 
L 16.96147 -34.770643 
L 16.909313 -34.679233 
L 16.857156 -34.587229 
L 16.804999 -34.494629 
L 16.752842 -34.401432 
L 16.700685 -34.307636 
L 16.648528 -34.213239 
L 16.596371 -34.118239 
L 16.544213 -34.022633 
L 16.492056 -33.926421 
L 16.439899 -33.8296 
L 16.387742 -33.732168 
L 16.335585 -33.634123 
L 16.283428 -33.535464 
L 16.231271 -33.436189 
L 16.179114 -33.336295 
L 16.126957 -33.23578 
L 16.0748 -33.134643 
L 16.022643 -33.032883 
L 15.970486 -32.930496 
L 15.918329 -32.82748 
L 15.866172 -32.723835 
L 15.814015 -32.619558 
L 15.761858 -32.514648 
L 15.709701 -32.409101 
L 15.657544 -32.302917 
L 15.605387 -32.196093 
L 15.55323 -32.088628 
L 15.501073 -31.98052 
L 15.448916 -31.871766 
L 15.396759 -31.762365 
L 15.344602 -31.652315 
L 15.292444 -31.541613 
L 15.240287 -31.430259 
L 15.18813 -31.318249 
L 15.135973 -31.205583 
L 15.083816 -31.092258 
L 15.031659 -30.978273 
L 14.979502 -30.863625 
L 14.927345 -30.748312 
L 14.875188 -30.632333 
L 14.823031 -30.515685 
L 14.770874 -30.398367 
L 14.718717 -30.280377 
L 14.66656 -30.161713 
L 14.614403 -30.042373 
L 14.562246 -29.922355 
L 14.510089 -29.801657 
L 14.457932 -29.680277 
L 14.405775 -29.558213 
L 14.353618 -29.435464 
L 14.301461 -29.312027 
L 14.249304 -29.187901 
L 14.197147 -29.063083 
L 14.14499 -28.937572 
L 14.092833 -28.811366 
L 14.040676 -28.684462 
L 13.988518 -28.556859 
L 13.936361 -28.428556 
L 13.884204 -28.299549 
L 13.832047 -28.16984 
L 13.77989 -28.039433 
L 13.727733 -27.908332 
L 13.675576 -27.776544 
L 13.623419 -27.644074 
L 13.571262 -27.510927 
L 13.519105 -27.377109 
L 13.466948 -27.242623 
L 13.414791 -27.107477 
L 13.362634 -26.971675 
L 13.310477 -26.835223 
L 13.25832 -26.698125 
L 13.206163 -26.560387 
L 13.154006 -26.422015 
L 13.101849 -26.283013 
L 13.049692 -26.143387 
L 12.997535 -26.003142 
L 12.945378 -25.862284 
L 12.893221 -25.720818 
L 12.841064 -25.578749 
L 12.788907 -25.436082 
L 12.736749 -25.292823 
L 12.684592 -25.148976 
L 12.632435 -25.004548 
L 12.580278 -24.859544 
L 12.528121 -24.713968 
L 12.475964 -24.567826 
L 12.423807 -24.421124 
L 12.37165 -24.273866 
L 12.319493 -24.126059 
L 12.267336 -23.977706 
L 12.215179 -23.828814 
L 12.163022 -23.679388 
L 12.110865 -23.529433 
L 12.058708 -23.378955 
L 12.006551 -23.227958 
L 11.954394 -23.076448 
L 11.902237 -22.924431 
L 11.85008 -22.771911 
L 11.797923 -22.618894 
L 11.745766 -22.465385 
L 11.693609 -22.311389 
L 11.641452 -22.156912 
L 11.589295 -22.00196 
L 11.537138 -21.846536 
L 11.48498 -21.690647 
L 11.432823 -21.534298 
L 11.380666 -21.377494 
L 11.328509 -21.220241 
L 11.276352 -21.062543 
L 11.224195 -20.904406 
L 11.172038 -20.745836 
L 11.119881 -20.586837 
L 11.067724 -20.427415 
L 11.015567 -20.267576 
L 10.96341 -20.107323 
L 10.911253 -19.946664 
L 10.859096 -19.785603 
L 10.806939 -19.624145 
L 10.754782 -19.462295 
L 10.702625 -19.30006 
L 10.650468 -19.137443 
L 10.598311 -18.974451 
L 10.546154 -18.811089 
L 10.493997 -18.647362 
L 10.44184 -18.483276 
L 10.389683 -18.318835 
L 10.337526 -18.154045 
L 10.285369 -17.988911 
L 10.233211 -17.823439 
L 10.181054 -17.657633 
L 10.128897 -17.4915 
L 10.07674 -17.325044 
L 10.024583 -17.158271 
L 9.972426 -16.991185 
L 9.920269 -16.823793 
L 9.868112 -16.6561 
L 9.815955 -16.48811 
L 9.763798 -16.319829 
L 9.711641 -16.151263 
L 9.659484 -15.982417 
L 9.607327 -15.813295 
L 9.55517 -15.643904 
L 9.503013 -15.474248 
L 9.450856 -15.304333 
L 9.398699 -15.134165 
L 9.346542 -14.963747 
L 9.294385 -14.793087 
L 9.242228 -14.622188 
L 9.190071 -14.451057 
L 9.137914 -14.279698 
L 9.085757 -14.108117 
L 9.0336 -13.936319 
L 8.981443 -13.76431 
L 8.929285 -13.592095 
L 8.877128 -13.419678 
L 8.824971 -13.247066 
L 8.772814 -13.074264 
L 8.720657 -12.901276 
L 8.6685 -12.728108 
L 8.616343 -12.554766 
L 8.564186 -12.381255 
L 8.512029 -12.20758 
L 8.459872 -12.033746 
L 8.407715 -11.859759 
L 8.355558 -11.685623 
L 8.303401 -11.511345 
L 8.251244 -11.33693 
L 8.199087 -11.162382 
L 8.14693 -10.987707 
L 8.094773 -10.812911 
L 8.042616 -10.637998 
L 7.990459 -10.462974 
L 7.938302 -10.287844 
L 7.886145 -10.112614 
L 7.833988 -9.937289 
L 7.781831 -9.761874 
L 7.729674 -9.586374 
L 7.677516 -9.410795 
L 7.625359 -9.235141 
L 7.573202 -9.059419 
L 7.521045 -8.883634 
L 7.468888 -8.70779 
L 7.416731 -8.531894 
L 7.364574 -8.35595 
L 7.312417 -8.179963 
L 7.26026 -8.00394 
L 7.208103 -7.827885 
L 7.155946 -7.651803 
L 7.103789 -7.4757 
L 7.051632 -7.299582 
L 6.999475 -7.123452 
L 6.947318 -6.947318 
z
" style="stroke: #5c2682"/>
    </defs>
    <g clip-path="url(#pc8fff05e74)">
     <use xlink:href="#me95f3b595b" x="0" y="65.99952" style="fill: #5c2682; stroke: #5c2682"/>
    </g>
   </g>
  </g>
 </g>
 <defs>
  <clipPath id="pc8fff05e74">
   <rect x="0" y="0" width="65.99952" height="65.99952"/>
  </clipPath>
 </defs>
</svg>
